<svg xmlns="http://www.w3.org/2000/svg" viewBox="0 0 473.54 225.86"><defs><style>.cls-1{fill:none;stroke-width:10px;}.cls-1,.cls-2{stroke:gray;stroke-miterlimit:10;}.cls-2{fill:gray;stroke-width:2px;}</style></defs><title>norecipes_graphic</title><g id="Layer_9" data-name="Layer 9"><path class="cls-1" d="M88.4,159.23s-27.46,35.82-7.16,59.7,28.65,27.47,23.88,45.38S92,296.55,84.82,304.91" transform="translate(-33.46 -156.19)"/><path class="cls-1" d="M139.74,159.23s-27.46,35.82-7.16,59.7,28.66,27.47,23.88,45.38-13.13,32.24-20.3,40.6" transform="translate(-33.46 -156.19)"/><path class="cls-1" d="M192.28,159.23s-27.46,35.82-7.16,59.7S213.77,246.4,209,264.31s-13.14,32.24-20.3,40.6" transform="translate(-33.46 -156.19)"/><path class="cls-1" d="M244.82,159.23s-27.46,35.82-7.16,59.7,28.65,27.47,23.88,45.38-13.14,32.24-20.3,40.6" transform="translate(-33.46 -156.19)"/></g><g id="Layer_8" data-name="Layer 8"><path class="cls-2" d="M34.5,319.55H302s-3.33,30.85-7.76,41.2c-5.38,12.54-19.11,20.3-23.89,20.3s-202.39-.6-202.39-.6-18.5-3-24.47-16.12C40.47,357.76,35.69,349.41,34.5,319.55Z" transform="translate(-33.46 -156.19)"/><path class="cls-2" d="M309.73,332.09l-6,21.49,41.79-7.16s6,4.78,10.75,4.78c4.58,0,128.13-25.34,137.89-27.34a6.55,6.55,0,0,0,1.3-.41c2.21-.95,9.06-4.27,10.06-9.27.47-2.34,1.1-5.94-1.19-14.33-3.58-13.13-9.55-13.13-14.33-13.13s-133.73,25.07-139.7,27.46-9.56,13.14-9.56,13.14Z" transform="translate(-33.46 -156.19)"/></g></svg>