<svg id="Layer_6" data-name="Layer 6" xmlns="http://www.w3.org/2000/svg" viewBox="0 0 444.64 334.02"><defs><style>.cls-1,.cls-2,.cls-3,.cls-4,.cls-5,.cls-6{fill:none;}.cls-2,.cls-3,.cls-4,.cls-5,.cls-6{stroke:#fff;stroke-miterlimit:10;}.cls-2{stroke-width:30px;}.cls-3{stroke-width:25px;}.cls-4,.cls-5{stroke-width:20px;}.cls-5,.cls-6{stroke-linecap:round;}.cls-6{stroke-width:15px;}</style></defs><title>recipe_cal</title><circle class="cls-1" cx="227.4" cy="164.02" r="133.5"/><circle class="cls-2" cx="227.4" cy="164.02" r="133.5"/><circle class="cls-3" cx="227.7" cy="164.39" r="72.37"/><path class="cls-4" d="M444.5,287.5s-4,107-3,116,8,11,14,11,14-5,14-12-2-115-2-115,11-90,9-113-25-66-29-68S444.5,287.5,444.5,287.5Z" transform="translate(-42.1 -96.48)"/><path class="cls-5" d="M52.5,119.5s-2,64,3,74a125.74,125.74,0,0,0,10,16.36,10.09,10.09,0,0,1,1.88,6.08c-.53,25.77-3.85,188-2.93,192.56,1,5,3,12,13,12" transform="translate(-42.1 -96.48)"/><line class="cls-6" x1="37.9" y1="22.52" x2="37.9" y2="90.52"/><path class="cls-5" d="M105.57,119.51s2,64-3,74a127,127,0,0,1-10.06,16.37,10.05,10.05,0,0,0-1.87,6c.53,25.72,3.85,188,2.93,192.59-1,5-3,12-13,12" transform="translate(-42.1 -96.48)"/></svg>